<?xml version="1.0" encoding="utf-8"?>
<!-- Generator: Adobe Illustrator 19.0.0, SVG Export Plug-In . SVG Version: 6.00 Build 0)  -->
<svg version="1.1" id="Layer_1" xmlns="http://www.w3.org/2000/svg" xmlns:xlink="http://www.w3.org/1999/xlink" x="0px" y="0px"
	 width="336px" height="308px" viewBox="0 0 336 308" enable-background="new 0 0 336 308" xml:space="preserve">
<g id="XMLID_123_">
	<g id="XMLID_145_">
		<g id="XMLID_150_">
			<path id="XMLID_155_" fill="#A88C35" d="M147.803,157.502c3.584,2.158,7.014,4.287,10.307,6.371v-42.111
				c-17.454-9.742-44.338-25.787-44.338-52.513c0-23.27,16.523-39.288,40.429-39.288c27.711,0,39.203,10.57,48.543,30.938
				c1.715,3.741,2.908,7.895,4.193,12.142c1,3.306,1.967,6.716,2.906,10.223h7.706c0-2.654,0-5.155,0.008-7.522
				c0.006-5.387,0.033-10.032,0.067-14.111c0.202-22.839,0.098-24.648,0.884-34.109h-7.694c-1.299,9.74-2.669,12.194-6.929,12.194
				c-3.106,0-6.051-1.321-11.448-4.785c-9.01-6.111-19.25-11.413-41.359-11.413c-33.052,0-63.006,18.658-63.006,58.61
				C88.074,120.265,115.909,138.189,147.803,157.502z"/>
			<path id="XMLID_154_" fill="#A88C35" d="M30.851,153.748c0-39.904,21.817-77.601,55.563-100.78
				c10.361-15.452,19.554-23.511,34.185-29.987C60.837,41.32,15.809,92.525,15.809,153.748c0,45.484,22.098,83.014,55.081,107.246
				c0.146-4.677,1.179-12.063,1.251-19.513C49.525,222.525,30.851,190.898,30.851,153.748z"/>
			<path id="XMLID_153_" fill="#A88C35" d="M316.626,153.748c0-56.211-33.864-102.497-90.991-127.299l-0.295,3.693
				c-0.301,3.658-0.574,6.86-0.79,11.223c44.188,20.559,77.034,63.748,77.034,112.383c0,49.826-35.742,91.496-75.541,109.662
				c-2.449,2.913-7.906,8.5-10.881,11.005c-10.328,8.7-21.042,13.063-36.347,16.843
				C256.924,286.239,316.626,227.015,316.626,153.748z"/>
			<path id="XMLID_152_" fill="#A88C35" d="M233.996,213.477c0-32.967-18.512-55.159-46.36-71.451v49.782
				c6.762,7.866,11.261,16.439,12.912,26.499c0.466,2.849,0.725,5.808,0.725,8.904c0,1.505-0.056,2.942-0.143,4.371
				c-1.898,32.167-24.655,45.617-47.435,45.617c-46.861,0-55.405-31.053-63.713-77.121h-8.411
				c-1.696,51.829-3.596,65.776-4.669,81.169h8.407c1.43-10.809,3.983-16.341,8.642-16.341c3.027,0,6.561,1.879,12.471,5.728
				c10.55,6.778,24.175,14.912,50.123,14.912C199.105,285.546,233.996,261.084,233.996,213.477z"/>
			<path id="XMLID_151_" fill="#A88C35" d="M281.253,197.659c-4.245,4.703-6.923,7.645-12.494,7.645
				c-6.355,0-8.927-4.801-11.721-16.475l-5.679-20.495c-4.341-16.652-11.712-34.176-32.014-37.112l-2.794-0.391
				c34.48-4.706,41.669-22.605,41.669-36.526c0-15.858-11.982-28.894-36.041-33.296c-0.019,2.361-0.027,4.877-0.031,7.574
				c9.322,5.505,13.198,15.076,13.198,27.982c0,18.425-8.421,31.537-36.75,31.229H183.21V81.172c0-13.528,2.337-17.095,15.521-17.24
				l-0.008-0.008c-0.813-2.069-1.592-3.731-1.592-3.731c-7.022,0.118-15.007,0.292-24.614,0.292
				c-10.041,0-19.325-0.198-25.676-0.588v4.02c15.502,0.586,16.306,2.646,16.306,17.254v35.678l-0.316,57.755l-0.368,20.728
				c-1.181,13.26-4.199,13.717-18.427,14.772v4.018c6.353-0.387,17.995-0.261,29.819-0.261c7.573,0,14.531,0.104,21.088,0.313
				c-0.414-1.514-0.684-3.61-1.233-5.047c-6.563-1.433-9.216-2.94-10.303-12.225c0-0.034,0-0.072,0-0.098l-0.198-64.99h1.888h19.857
				c18.071,0,21.414,22.12,25.769,39.178l4.337,17.282l0.684,2.711c0.389,1.529,0.823,2.928,1.274,4.254
				c4.657,13.654,12.806,17.515,23.262,17.515c12.267,0,17.949-4.605,24.424-12.837L281.253,197.659z"/>
		</g>
		<path id="XMLID_149_" fill="#A88C35" d="M147.803,157.502c3.584,2.158,7.014,4.287,10.307,6.371v-42.111
			c-17.454-9.742-44.338-25.787-44.338-52.513c0-23.27,16.523-39.288,40.429-39.288c27.711,0,39.203,10.57,48.543,30.938
			c1.715,3.741,2.908,7.895,4.193,12.142c1,3.306,1.967,6.716,2.906,10.223h7.706c0-2.654,0-5.155,0.008-7.522
			c0.006-5.387,0.033-10.032,0.067-14.111c0.202-22.839,0.098-24.648,0.884-34.109h-7.694c-1.299,9.74-2.669,12.194-6.929,12.194
			c-3.106,0-6.051-1.321-11.448-4.785c-9.01-6.111-19.25-11.413-41.359-11.413c-33.052,0-63.006,18.658-63.006,58.61
			C88.074,120.265,115.909,138.189,147.803,157.502z"/>
		<path id="XMLID_148_" fill="#A88C35" d="M30.851,153.748c0-39.904,21.817-77.601,55.563-100.78
			c10.361-15.452,19.554-23.511,34.185-29.987C60.837,41.32,15.809,92.525,15.809,153.748c0,45.484,22.098,83.014,55.081,107.246
			c0.146-4.677,1.179-12.063,1.251-19.513C49.525,222.525,30.851,190.898,30.851,153.748z"/>
		<path id="XMLID_147_" fill="#A88C35" d="M233.996,213.477c0-32.967-18.512-55.159-46.36-71.451v49.782
			c6.762,7.866,11.261,16.439,12.912,26.499c0.466,2.849,0.725,5.808,0.725,8.904c0,1.505-0.056,2.942-0.143,4.371
			c-1.898,32.167-24.655,45.617-47.435,45.617c-46.861,0-55.405-31.053-63.713-77.121h-8.411
			c-1.696,51.829-3.596,65.776-4.669,81.169h8.407c1.43-10.809,3.983-16.341,8.642-16.341c3.027,0,6.561,1.879,12.471,5.728
			c10.55,6.778,24.175,14.912,50.123,14.912C199.105,285.546,233.996,261.084,233.996,213.477z"/>
		<path id="XMLID_146_" fill="#A88C35" d="M281.253,197.659c-4.245,4.703-6.923,7.645-12.494,7.645
			c-6.355,0-8.927-4.801-11.721-16.475l-5.679-20.495c-4.341-16.652-11.712-34.176-32.014-37.112l-2.794-0.391
			c34.48-4.706,41.669-22.605,41.669-36.526c0-15.858-11.982-28.894-36.041-33.296c-0.019,2.361-0.027,4.877-0.031,7.574
			c9.322,5.505,13.198,15.076,13.198,27.982c0,18.425-8.421,31.537-36.75,31.229H183.21V81.172c0-13.528,2.337-17.095,15.521-17.24
			l-0.008-0.008c-0.813-2.069-1.592-3.731-1.592-3.731c-7.022,0.118-15.007,0.292-24.614,0.292c-10.041,0-19.325-0.198-25.676-0.588
			v4.02c15.502,0.586,16.306,2.646,16.306,17.254v35.678l-0.316,57.755l-0.368,20.728c-1.181,13.26-4.199,13.717-18.427,14.772
			v4.018c6.353-0.387,17.995-0.261,29.819-0.261c7.573,0,14.531,0.104,21.088,0.313c-0.414-1.514-0.684-3.61-1.233-5.047
			c-6.563-1.433-9.216-2.94-10.303-12.225c0-0.034,0-0.072,0-0.098l-0.198-64.99h1.888h19.857c18.071,0,21.414,22.12,25.769,39.178
			l4.337,17.282l0.684,2.711c0.389,1.529,0.823,2.928,1.274,4.254c4.657,13.654,12.806,17.515,23.262,17.515
			c12.267,0,17.949-4.605,24.424-12.837L281.253,197.659z"/>
	</g>
</g>
</svg>
