<svg id="Layer_1" data-name="Layer 1" xmlns="http://www.w3.org/2000/svg" viewBox="0 0 160.9 142.27"><title>logo</title><path d="M73.32,62.92c1.63,1,3.19,1.91,4.69,2.83V47c-7.94-4.34-20.17-11.47-20.17-23.36,0-10.36,7.51-17.48,18.39-17.48,12.61,0,17.84,4.7,22.09,13.76a43.28,43.28,0,0,1,1.91,5.4c.45,1.47.89,3,1.32,4.55h3.51v-9.6c.09-10.16,0-11,.4-15.18H102c-.59,4.33-1.21,5.43-3.15,5.43-1.41,0-2.75-.59-5.21-2.13-4.1-2.72-8.76-5.08-18.82-5.08-15,0-28.67,8.3-28.67,26.08C46.14,46.35,58.81,54.33,73.32,62.92Z" transform="translate(-3.23 -3.07)" fill="#ba9934"/><path d="M20.11,61.25c0-17.75,9.92-34.53,25.28-44.84C50.1,9.54,54.28,6,60.94,3.07,33.75,11.23,13.26,34,13.26,61.25c0,20.24,10.06,36.93,25.06,47.71.07-2.08.54-5.36.57-8.68C28.6,91.85,20.11,77.78,20.11,61.25Z" transform="translate(-3.23 -3.07)" fill="#ba9934"/><path d="M150.14,61.25c0-25-15.41-45.6-41.41-56.64l-.13,1.65c-.14,1.62-.26,3.05-.36,5,20.11,9.15,35.05,28.36,35.05,50C143.29,83.42,127,102,108.92,110a55.07,55.07,0,0,1-5,4.9c-4.7,3.87-9.58,5.81-16.54,7.49C123,120.2,150.14,93.85,150.14,61.25Z" transform="translate(-3.23 -3.07)" fill="#ba9934"/><path d="M112.54,87.82c0-14.66-8.42-24.54-21.1-31.79V78.18A23.51,23.51,0,0,1,97.32,90a24.35,24.35,0,0,1,.33,4,17.88,17.88,0,0,1-.07,2c-.86,14.31-11.21,20.29-21.58,20.29-21.32,0-25.21-13.81-29-34.31H43.18c-.77,23.06-1.63,29.27-2.12,36.12h3.82c.66-4.81,1.82-7.28,3.94-7.28,1.37,0,3,.84,5.67,2.55,4.8,3,11,6.64,22.81,6.64C96.66,119.89,112.54,109,112.54,87.82Z" transform="translate(-3.23 -3.07)" fill="#ba9934"/><path d="M134,80.79c-1.93,2.09-3.15,3.4-5.68,3.4-2.9,0-4.07-2.14-5.34-7.33l-2.58-9.12c-2-7.41-5.33-15.21-14.57-16.51l-1.27-.18c15.69-2.09,19-10,19-16.25,0-7-5.45-12.85-16.4-14.81v3.37c4.24,2.45,6,6.71,6,12.45,0,8.2-3.83,14-16.72,13.89h-7V29c0-6,1.06-7.6,7.06-7.67h0c-.37-.92-.73-1.66-.73-1.66-3.19,0-6.82.13-11.19.13-4.57,0-8.8-.09-11.69-.26v1.78c7.06.27,7.42,1.18,7.42,7.68V44.83l-.14,25.7L80,79.75c-.54,5.9-1.91,6.1-8.38,6.57v1.79c2.89-.17,8.18-.12,13.56-.12,3.45,0,6.62.05,9.6.14-.19-.67-.31-1.6-.56-2.24-3-.64-4.19-1.31-4.69-5.44h0l-.09-28.92h9.89c8.23,0,9.75,9.84,11.73,17.43l2,7.69.31,1.21c.18.68.38,1.3.58,1.89,2.12,6.07,5.83,7.79,10.59,7.79,5.58,0,8.17-2,11.11-5.71Z" transform="translate(-3.23 -3.07)" fill="#ba9934"/><path d="M3.39,140.54l.1-.1h.6l.1.1a11.47,11.47,0,0,0,.17,1.94,1.6,1.6,0,0,0,.67.74,4.61,4.61,0,0,0,1.5.63,7,7,0,0,0,1.88.25,5.63,5.63,0,0,0,2.36-.48,3.68,3.68,0,0,0,1.63-1.42,3.86,3.86,0,0,0,.58-2.09,3.51,3.51,0,0,0-.28-1.43,2.55,2.55,0,0,0-.78-1,3.56,3.56,0,0,0-1.15-.54c-.63-.16-1.27-.29-1.91-.39-.83-.13-1.47-.25-1.94-.36a6.75,6.75,0,0,1-1.39-.49,3.91,3.91,0,0,1-1.16-.85,4.1,4.1,0,0,1-.74-1.26,4.66,4.66,0,0,1-.28-1.61A4.94,4.94,0,0,1,5,128.42a6.14,6.14,0,0,1,4.32-1.48,11.5,11.5,0,0,1,2.34.27A9.42,9.42,0,0,1,14,128l.09.14a16.06,16.06,0,0,0-.34,3.24l-.11.1H13l-.1-.08a9.58,9.58,0,0,0-.08-1.87c-.08-.26-.4-.57-1.12-.95A4.93,4.93,0,0,0,9.29,128a4.61,4.61,0,0,0-2,.42,2.81,2.81,0,0,0-1.38,1.32,4.09,4.09,0,0,0-.47,1.85,2.86,2.86,0,0,0,.28,1.29,2.46,2.46,0,0,0,.74.89,3.11,3.11,0,0,0,1,.49c.4.1,1.13.24,2.2.39a13.27,13.27,0,0,1,3.18.75,3.6,3.6,0,0,1,1.6,1.39,4.3,4.3,0,0,1,.6,2.3,5.46,5.46,0,0,1-2,4.41,8,8,0,0,1-5.2,1.75,10.35,10.35,0,0,1-4.49-.91l-.08-.16A34,34,0,0,0,3.39,140.54Z" transform="translate(-3.23 -3.07)" fill="#ba9934"/><path d="M18.14,135.4l-.54-.14-.11-.14v-1.71a8.1,8.1,0,0,1,4.79-1.83,5.42,5.42,0,0,1,2.65.59,3.76,3.76,0,0,1,1.52,1.49,4.34,4.34,0,0,1,.48,2.09l-.07,2.78v4.13a2.42,2.42,0,0,0,.12,1,.55.55,0,0,0,.26.24,2.84,2.84,0,0,0,.57.1l.79.07.11.13v.55l-.11.11c-.67,0-1.3-.08-1.88-.08a18.47,18.47,0,0,0-2,.08l-.2-.19.05-2.23-3,2.35a4.13,4.13,0,0,1-1.66.32,4.21,4.21,0,0,1-1.91-.4,2.93,2.93,0,0,1-1.22-1.12,3.46,3.46,0,0,1-.42-1.75,4,4,0,0,1,1.28-3.18c.85-.76,3.16-1.41,7-1.95a3.79,3.79,0,0,0-.91-2.88A3.48,3.48,0,0,0,21.2,133a4.51,4.51,0,0,0-1.46.23,2,2,0,0,0-.75.38c-.07.1-.32.67-.75,1.7Zm6.43,2.19c-2.59.44-4.2.9-4.84,1.4a2.75,2.75,0,0,0-.95,2.31,1.9,1.9,0,0,0,1.6,2.16,1.69,1.69,0,0,0,.55,0,5,5,0,0,0,3.64-2.13Z" transform="translate(-3.23 -3.07)" fill="#ba9934"/><path d="M35.89,145,35,142.87l-1-2.37-2.84-6.61a3,3,0,0,0-.5-.86.85.85,0,0,0-.43-.25,8.89,8.89,0,0,0-.89-.07l-.11-.11V132l.12-.13c1.3.07,2.32.1,3.08.1,1.07,0,2.15,0,3.23-.1l.11.11v.61l-.11.11a5,5,0,0,0-1.68.2.49.49,0,0,0-.23.41,6.29,6.29,0,0,0,.55,1.79l1.7,4.22,1.33,3.15,1.39-3.15,1.15-2.85c.44-1.08.73-1.85.86-2.3a3.9,3.9,0,0,0,.19-.9.4.4,0,0,0-.3-.38,6.62,6.62,0,0,0-1.54-.18L39,132.6V132l.12-.13c1.15.07,2,.1,2.58.1s1.3,0,2.46-.1l.13.13v.59l-.11.11a2.88,2.88,0,0,0-1.09.24,1.58,1.58,0,0,0-.53.64q-.26.48-1.47,3l-1.33,2.85q-.33.72-2.4,5.63Z" transform="translate(-3.23 -3.07)" fill="#ba9934"/><path d="M46.46,135.4l-.54-.14-.11-.14v-1.71a8.1,8.1,0,0,1,4.8-1.83,5.38,5.38,0,0,1,2.64.59,3.85,3.85,0,0,1,1.53,1.49,4.47,4.47,0,0,1,.47,2.09l-.07,2.78v4.13a2.42,2.42,0,0,0,.12,1,.55.55,0,0,0,.26.24,2.84,2.84,0,0,0,.57.1l.79.07.11.13v.55l-.11.11c-.67,0-1.3-.08-1.88-.08a18.47,18.47,0,0,0-2,.08l-.2-.19v-2.23l-3,2.35a4.13,4.13,0,0,1-1.66.32,4.21,4.21,0,0,1-1.91-.4,2.93,2.93,0,0,1-1.22-1.12,3.46,3.46,0,0,1-.42-1.75,4,4,0,0,1,1.28-3.18c.85-.76,3.16-1.41,7-1.95a3.79,3.79,0,0,0-.91-2.88,3.54,3.54,0,0,0-2.45-.84,4.57,4.57,0,0,0-1.47.23,2,2,0,0,0-.75.38c-.07.1-.32.67-.75,1.7Zm6.43,2.19c-2.58.44-4.2.9-4.83,1.4a2.73,2.73,0,0,0-1,2.31,1.91,1.91,0,0,0,1.62,2.16,2.35,2.35,0,0,0,.53,0,5,5,0,0,0,3.64-2.13Z" transform="translate(-3.23 -3.07)" fill="#ba9934"/><path d="M62.45,131.59l.26.18c-.05.62-.09,1.43-.11,2.44.74-.61,1.44-1.23,2.11-1.86a2.34,2.34,0,0,1,.55-.38,4.2,4.2,0,0,1,.85-.27,5.57,5.57,0,0,1,1.22-.14,5.28,5.28,0,0,1,2,.43,4.12,4.12,0,0,1,1.5,1,3.33,3.33,0,0,1,.7,1.39,9,9,0,0,1,.19,2v2.44c0,.16,0,1.31.07,3.45a2.75,2.75,0,0,0,.29,1.57,3.37,3.37,0,0,0,1.72.25l.11.11v.6l-.11.11c-1.17-.08-2-.11-2.38-.11a18.91,18.91,0,0,0-2,.11l-.16-.16c.12-1.2.18-2.76.18-4.69v-1.82a17.63,17.63,0,0,0-.08-2.35,2.79,2.79,0,0,0-.46-1.31,2.6,2.6,0,0,0-1-.92,3.62,3.62,0,0,0-1.55-.32,4.72,4.72,0,0,0-1.24.14,4.21,4.21,0,0,0-1.15.6,4.42,4.42,0,0,0-.94.84,1.76,1.76,0,0,0-.36.74,8.81,8.81,0,0,0-.07,1.45v2.41c0,.2,0,.85.06,2a15.51,15.51,0,0,0,.12,1.93.81.81,0,0,0,.18.4.62.62,0,0,0,.31.16c.12,0,.62.06,1.49.12l.13.11v.58l-.11.13c-1.16-.08-2.27-.11-3.34-.11s-2.17,0-3.33.11l-.12-.13v-.58l.12-.11c.9-.06,1.41-.1,1.52-.13a.53.53,0,0,0,.31-.17,1,1,0,0,0,.18-.4c0-.18.06-.78.11-1.79s.06-1.77.06-2.29v-2.73c0-.37,0-.87-.06-1.51a11.71,11.71,0,0,0-.09-1.18.38.38,0,0,0-.21-.32,1.6,1.6,0,0,0-.72-.11H58l-.12-.11v-.6l.11-.11A18,18,0,0,0,62.45,131.59Z" transform="translate(-3.23 -3.07)" fill="#ba9934"/><path d="M78.44,127.4l.1-.09c1.5.07,2.68.1,3.52.1s2.19,0,3.77-.08h1.28c2.08,0,3.5.38,4.24,1.14a3.75,3.75,0,0,1,1.11,2.7,4.25,4.25,0,0,1-.54,2,4.8,4.8,0,0,1-1.61,1.71A7.76,7.76,0,0,1,87.38,136c.23.32.65.88,1.25,1.67L90.39,140c.57.76,1.18,1.58,1.83,2.43a8.3,8.3,0,0,0,1.26,1.45,1.49,1.49,0,0,0,.49.2,3.53,3.53,0,0,0,.65,0l.1.1v.58l-.11.11a11.25,11.25,0,0,0-1.42-.07,18.45,18.45,0,0,0-1.91.07q-.86-1-2.69-3.6c-1.42-2-2.87-3.81-4.35-5.51l.12-.38h1a5,5,0,0,0,3.36-1,3.51,3.51,0,0,0,1.21-2.84,2.91,2.91,0,0,0-1.09-2.47,4.73,4.73,0,0,0-2.94-.84,8.12,8.12,0,0,0-2.45.36,24,24,0,0,0-.19,4.64v8.14c0,.6,0,1.21.08,1.81a1.05,1.05,0,0,0,.18.54A.94.94,0,0,0,84,144a10,10,0,0,0,1.64.14l.1.08v.62l-.1.09-2.17-.07H82.09l-3.53.09-.1-.09v-.62l.1-.08a13.14,13.14,0,0,0,1.53-.12,1.06,1.06,0,0,0,.51-.19.93.93,0,0,0,.21-.5,10.9,10.9,0,0,0,.1-1.71V130.89a12.47,12.47,0,0,0-.06-1.82,1.05,1.05,0,0,0-.18-.54.85.85,0,0,0-.45-.23,11.22,11.22,0,0,0-1.64-.13l-.1-.09Z" transform="translate(-3.23 -3.07)" fill="#ba9934"/><path d="M106.58,142.76l-.44,1a8.63,8.63,0,0,1-2.57,1.2,8.39,8.39,0,0,1-2,.28,7.93,7.93,0,0,1-3.15-.65A5.29,5.29,0,0,1,96,142.38a7,7,0,0,1-.94-3.74A8.75,8.75,0,0,1,95.4,136a6.26,6.26,0,0,1,.76-1.74A5.49,5.49,0,0,1,97.49,133a9.1,9.1,0,0,1,2-1.11,6.06,6.06,0,0,1,2.27-.42,5.49,5.49,0,0,1,2.93.79,4.27,4.27,0,0,1,1.78,2,6.76,6.76,0,0,1,.51,2.59,5.75,5.75,0,0,1,0,.83l-.15.15a14.52,14.52,0,0,1-2.54.28c-1.06,0-1.76.07-2.1.07H97.7a5.75,5.75,0,0,0,1.44,4.23,4.82,4.82,0,0,0,3.47,1.35,5.4,5.4,0,0,0,1.86-.33,11,11,0,0,0,1.89-.93Zm-8.88-5.67c.17,0,.81.06,1.92.1s1.94.05,2.47.05a20.32,20.32,0,0,0,2.34-.07v-.51a4.85,4.85,0,0,0-.88-3.19,2.94,2.94,0,0,0-2.38-1.05,3.12,3.12,0,0,0-2.57,1.18A5.66,5.66,0,0,0,97.7,137.09Z" transform="translate(-3.23 -3.07)" fill="#ba9934"/><path d="M108.76,140.72h.59l.13.13a19,19,0,0,0,.14,2,3,3,0,0,0,1.48,1.06,5.92,5.92,0,0,0,2.08.41,3.39,3.39,0,0,0,2.35-.79,2.44,2.44,0,0,0,.88-1.88,1.7,1.7,0,0,0-.32-1,2.41,2.41,0,0,0-1-.72,15.5,15.5,0,0,0-2.3-.67c-1-.22-1.62-.39-2-.52a3.14,3.14,0,0,1-1.09-.63,3,3,0,0,1-.81-1.09,3.62,3.62,0,0,1-.27-1.42,3.55,3.55,0,0,1,1.47-3,6,6,0,0,1,3.68-1.11,9.05,9.05,0,0,1,2,.25,11.87,11.87,0,0,1,1.67.49l.12.2a23.63,23.63,0,0,0-.14,2.91l-.12.12h-.56l-.12-.12a7.9,7.9,0,0,0-.15-1.19,1.94,1.94,0,0,0-.5-.73,3.21,3.21,0,0,0-1.14-.67,4.56,4.56,0,0,0-1.55-.27,3.61,3.61,0,0,0-1.42.25,2.22,2.22,0,0,0-.93.76,2.12,2.12,0,0,0-.35,1.22,2.09,2.09,0,0,0,.21.95,1.7,1.7,0,0,0,.66.67,3.76,3.76,0,0,0,.93.37l1.51.38a22.68,22.68,0,0,1,2.78.82,2.71,2.71,0,0,1,1.29,1,3,3,0,0,1,.46,1.69,4.21,4.21,0,0,1-1.58,3.29,6,6,0,0,1-4.06,1.37,14.34,14.34,0,0,1-2.17-.19c-.86-.13-1.6-.28-2.21-.43l-.07-.18.14-.93a6.42,6.42,0,0,0,.09-.87v-1.83Z" transform="translate(-3.23 -3.07)" fill="#ba9934"/><path d="M119.76,138.45a7.73,7.73,0,0,1,.68-3.18,6.37,6.37,0,0,1,2.36-2.65,7.08,7.08,0,0,1,4-1.11,6.27,6.27,0,0,1,6.57,6,5.8,5.8,0,0,1,0,.59,7.11,7.11,0,0,1-6.94,7.28h-.23a6,6,0,0,1-3.46-1.05,6.47,6.47,0,0,1-2.25-2.56A7.45,7.45,0,0,1,119.76,138.45Zm2.62-1a11,11,0,0,0,.5,3.47,5.21,5.21,0,0,0,1.58,2.46,3.71,3.71,0,0,0,2.46.93,3.35,3.35,0,0,0,2.7-1.29,6,6,0,0,0,1.07-3.9,9.11,9.11,0,0,0-1.16-4.84,3.67,3.67,0,0,0-3.33-1.88,3.35,3.35,0,0,0-2.81,1.3,6,6,0,0,0-1,3.79Z" transform="translate(-3.23 -3.07)" fill="#ba9934"/><path d="M139.06,131.59l.26.18c0,.54-.09,1.49-.12,2.86l1-1.32a7.75,7.75,0,0,1,.9-1,2.83,2.83,0,0,1,.93-.55,3.08,3.08,0,0,1,1.08-.2,2.83,2.83,0,0,1,1.15.25l.09.2c-.14,1.23-.23,2.31-.25,3.24h-.62a1.86,1.86,0,0,0-1.79-1.28,2.2,2.2,0,0,0-1.49.55,2.6,2.6,0,0,0-.85,1.37,8.16,8.16,0,0,0-.22,2.09v1.54c0,.27,0,.95.06,2a16.75,16.75,0,0,0,.11,1.87.75.75,0,0,0,.2.37.71.71,0,0,0,.34.16c.15,0,.81.07,2,.14l.12.11v.58l-.12.13c-1.23-.08-2.51-.11-3.85-.11-1.07,0-2.17,0-3.33.11l-.12-.13v-.58l.12-.11c.9-.06,1.4-.1,1.52-.13a.51.51,0,0,0,.3-.17.73.73,0,0,0,.18-.4c0-.18.07-.78.11-1.79s.07-1.77.07-2.29v-2.73c0-.37,0-.87-.06-1.51s-.07-1-.09-1.18a.38.38,0,0,0-.21-.32,1.6,1.6,0,0,0-.72-.11h-1.17l-.12-.11v-.6l.11-.11A18.09,18.09,0,0,0,139.06,131.59Z" transform="translate(-3.23 -3.07)" fill="#ba9934"/><path d="M145,133.92v-.36l.09-.14a17.83,17.83,0,0,0,2.11-.9c0-2.41,0-3.82-.08-4.21a11.78,11.78,0,0,0,2.34-1.07l.33.28q-.14.87-.33,5.07H151a17.38,17.38,0,0,0,2.34-.08l.09.1-.26,1.16-.11.13h-3.57l-.08,5.63a21.9,21.9,0,0,0,.09,2.56,1.45,1.45,0,0,0,.49.94,1.89,1.89,0,0,0,1.22.34,3.26,3.26,0,0,0,1.72-.48l.33.5c-.22.15-.75.61-1.6,1.38a3.54,3.54,0,0,1-1.46.33q-3.12,0-3.12-3c0-.73,0-1.36,0-1.88V134h-.57a12.39,12.39,0,0,0-1.43.06Z" transform="translate(-3.23 -3.07)" fill="#ba9934"/><path d="M154.47,140.72h.59l.13.13a19,19,0,0,0,.14,2,3,3,0,0,0,1.48,1.06,5.92,5.92,0,0,0,2.08.41,3.39,3.39,0,0,0,2.35-.79,2.44,2.44,0,0,0,.88-1.88,1.7,1.7,0,0,0-.32-1,2.41,2.41,0,0,0-1-.72,15.5,15.5,0,0,0-2.3-.67c-.95-.22-1.62-.39-2-.52a3.14,3.14,0,0,1-1.09-.63,3,3,0,0,1-.81-1.09,3.62,3.62,0,0,1-.27-1.42,3.55,3.55,0,0,1,1.47-3,6,6,0,0,1,3.68-1.11,9.05,9.05,0,0,1,2,.25,11.87,11.87,0,0,1,1.67.49l.12.2a23.63,23.63,0,0,0-.14,2.91l-.12.12h-.56l-.12-.12a7.9,7.9,0,0,0-.15-1.19,1.84,1.84,0,0,0-.5-.73,3.21,3.21,0,0,0-1.14-.67,4.56,4.56,0,0,0-1.55-.27,3.61,3.61,0,0,0-1.42.25,2.22,2.22,0,0,0-.93.76,2.12,2.12,0,0,0-.35,1.22,2.09,2.09,0,0,0,.21.95,1.77,1.77,0,0,0,.66.67,3.76,3.76,0,0,0,.93.37l1.51.38a22.68,22.68,0,0,1,2.78.82,2.71,2.71,0,0,1,1.29,1,3,3,0,0,1,.46,1.69,4.21,4.21,0,0,1-1.58,3.29,6,6,0,0,1-4.06,1.37,14.34,14.34,0,0,1-2.17-.19c-.86-.13-1.6-.28-2.21-.43l-.07-.18.14-.93a5.12,5.12,0,0,0,.08-.87v-1.83Z" transform="translate(-3.23 -3.07)" fill="#ba9934"/></svg>